# xmcd
# 
# Track frame offsets:
#     150
#     9050
#     18570
#     26703
#     38414
#     52877
#     61819
#     72624
#     87843
#     100128
#     114108
#     125834
#     135089
#     152947
#     163297
#     171594
#     180862
# 
# Disc length: 2564
# 
# Revision: 0
# Processed by: cddbd v1.5.2PL0 Copyright (c) Steve Scherf et al.
# Submitted via: fre:ac v1.0.17
# 
DISCID=d10a0211
DTITLE=Boris Bursac - Back from the past
DYEAR=2004
DGENRE=Blues
TTITLE0=Fingers
TTITLE1=Gio's Groove
TTITLE2=Jerry's Touch
TTITLE3=You Are The Sunshine Of My Life
TTITLE4=Line 'Em Up
TTITLE5=For Ella
TTITLE6=Song For Modry
TTITLE7=Young Thing
TTITLE8=Struttin'
TTITLE9=Berlin
TTITLE10=Blues
TTITLE11=Little M
TTITLE12=The Beatles Medley
TTITLE13=Summer Of 82
TTITLE14=Room 104
TTITLE15=Around The Lake
TTITLE16=Tisno
EXTD=Best blues album in 2004!
EXTT0=
EXTT1=
EXTT2=
EXTT3=
EXTT4=
EXTT5=
EXTT6=
EXTT7=
EXTT8=
EXTT9=
EXTT10=
EXTT11=
EXTT12=
EXTT13=
EXTT14=
EXTT15=
EXTT16=
PLAYORDER=
